<?xml version="1.0" encoding="UTF-8" standalone="no"?>
<!-- Created with Inkscape (http://www.inkscape.org/) -->

<svg
   xmlns:dc="http://purl.org/dc/elements/1.1/"
   xmlns:cc="http://creativecommons.org/ns#"
   xmlns:rdf="http://www.w3.org/1999/02/22-rdf-syntax-ns#"
   xmlns:svg="http://www.w3.org/2000/svg"
   xmlns="http://www.w3.org/2000/svg"
   xmlns:sodipodi="http://sodipodi.sourceforge.net/DTD/sodipodi-0.dtd"
   xmlns:inkscape="http://www.inkscape.org/namespaces/inkscape"
   width="374.83768"
   height="140"
   viewBox="0 0 99.175801 37.041668"
   version="1.1"
   id="svg1192"
   inkscape:version="0.92.3 (2405546, 2018-03-11)"
   sodipodi:docname="hz_wordmark_wht.svg"
   inkscape:export-filename="/home/gumm/Workspace/mqttwarn/assets/logo/hz_wordmark_wht_200x75.png"
   inkscape:export-xdpi="51.220001"
   inkscape:export-ydpi="51.220001">
  <defs
     id="defs1186" />
  <sodipodi:namedview
     id="base"
     pagecolor="#ffffff"
     bordercolor="#666666"
     borderopacity="1.0"
     inkscape:pageopacity="0.0"
     inkscape:pageshadow="2"
     inkscape:zoom="7.1932125"
     inkscape:cx="101.03605"
     inkscape:cy="60.322891"
     inkscape:document-units="mm"
     inkscape:current-layer="layer1"
     showgrid="false"
     units="px"
     fit-margin-top="20"
     fit-margin-left="20"
     fit-margin-right="20"
     fit-margin-bottom="20"
     showguides="true"
     inkscape:guide-bbox="true"
     inkscape:window-width="3840"
     inkscape:window-height="2108"
     inkscape:window-x="0"
     inkscape:window-y="0"
     inkscape:window-maximized="1" />
  <metadata
     id="metadata1189">
    <rdf:RDF>
      <cc:Work
         rdf:about="">
        <dc:format>image/svg+xml</dc:format>
        <dc:type
           rdf:resource="http://purl.org/dc/dcmitype/StillImage" />
        <dc:title />
      </cc:Work>
    </rdf:RDF>
  </metadata>
  <g
     inkscape:label="Layer 1"
     inkscape:groupmode="layer"
     id="layer1"
     transform="translate(-25.82448,-98.62648)">
    <path
       id="path4205"
       style="fill:#ffffff;stroke-width:0.83690035"
       d="m 37.202338,111.56919 -2.993616,11.15643 h 2.334225 l 1.824178,-6.81044 1.824178,6.81044 h 2.329573 l 1.824178,-6.80114 1.824695,6.80114 h 2.334224 l 1.821595,-6.79907 0.863513,3.22564 h 2.334224 l -2.032434,-7.57421 0.0021,-0.009 h -0.0047 -2.329573 l -1.824178,6.797 -1.819527,-6.797 h -2.334225 l -1.824695,6.81095 -1.824178,-6.81095 z m 14.332975,8.86923 0.612366,2.2872 h 2.334225 l -0.612367,-2.2872 z m -18.54601,-16.52028 h 22.712021 c 1.037728,0 1.873156,0.83542 1.873156,1.87315 v 22.71202 c 0,1.03773 -0.835428,1.87316 -1.873156,1.87316 H 32.989303 c -1.037729,0 -1.873157,-0.83543 -1.873157,-1.87316 v -22.71202 c 0,-1.03773 0.835428,-1.87315 1.873157,-1.87315 z"
       inkscape:export-xdpi="96"
       inkscape:export-ydpi="96" />
    <g
       aria-label="mqttwarn"
       style="font-style:normal;font-variant:normal;font-weight:normal;font-stretch:normal;font-size:10.04280472px;line-height:0%;font-family:Ubuntu;-inkscape-font-specification:Ubuntu;letter-spacing:0px;word-spacing:0px;fill:#ffffff;fill-opacity:1;stroke:none;stroke-width:0.83690041"
       id="text4225"
       inkscape:export-xdpi="96"
       inkscape:export-ydpi="96">
      <path
         d="m 70.027594,122.29691 v -4.50025 q 0,-0.82749 -0.318264,-1.24123 -0.318264,-0.41374 -0.986618,-0.41374 -0.464666,0 -0.789295,0.15276 -0.32463,0.1464 -0.534684,0.43921 -0.203689,0.28643 -0.299168,0.71927 -0.09548,0.42648 -0.09548,0.98662 v 3.85736 h -1.164847 v -4.50025 q 0,-0.82749 -0.318264,-1.24123 -0.311899,-0.41374 -0.980253,-0.41374 -0.490127,0 -0.821122,0.16549 -0.330994,0.1655 -0.534683,0.49013 -0.197324,0.32463 -0.286438,0.79566 -0.08275,0.47103 -0.08275,1.0821 v 3.62184 h -1.158481 v -6.98908 h 0.942062 l 0.165497,0.94207 h 0.06365 q 0.152767,-0.27371 0.362821,-0.47104 0.210054,-0.20368 0.4583,-0.33736 0.254612,-0.13367 0.534684,-0.19732 0.286438,-0.0636 0.579241,-0.0636 0.763833,0 1.266691,0.28007 0.509222,0.28007 0.751103,0.87841 h 0.05092 q 0.165497,-0.29917 0.394648,-0.51559 0.235515,-0.21642 0.509222,-0.35645 0.280072,-0.14641 0.585606,-0.21642 0.305534,-0.07 0.623798,-0.07 1.113924,0 1.674069,0.61107 0.56651,0.6047 0.56651,1.94141 v 4.5639 z"
         style="font-style:normal;font-variant:normal;font-weight:normal;font-stretch:normal;font-size:13.03609657px;line-height:1.25;font-family:'Droid Sans';-inkscape-font-specification:'Droid Sans';stroke-width:0.83690041;fill:#ffffff"
         id="path1790" />
      <path
         d="m 75.832731,121.46306 q 0.483762,0 0.814756,-0.1464 0.33736,-0.1464 0.541049,-0.44557 0.210055,-0.29917 0.305534,-0.74474 0.101844,-0.45193 0.114575,-1.05027 v -0.26098 q 0,-0.64289 -0.08911,-1.13938 -0.08275,-0.50286 -0.292803,-0.84022 -0.203689,-0.34372 -0.547414,-0.51559 -0.343725,-0.17822 -0.859313,-0.17822 -0.859313,0 -1.266691,0.69381 -0.401013,0.69382 -0.401013,1.99233 0,1.33035 0.401013,1.98597 0.407378,0.64926 1.279421,0.64926 z m -0.222785,0.96116 q -0.591971,0 -1.082097,-0.22915 -0.490127,-0.22915 -0.840218,-0.68109 -0.35009,-0.4583 -0.541049,-1.13302 -0.190958,-0.67472 -0.190958,-1.56586 0,-0.8975 0.190958,-1.57222 0.190959,-0.68109 0.541049,-1.13939 0.350091,-0.4583 0.840218,-0.68745 0.490126,-0.23551 1.082097,-0.23551 0.375552,0 0.681086,0.0891 0.305533,0.0828 0.547414,0.22915 0.24188,0.14004 0.432839,0.33736 0.190958,0.19096 0.33736,0.41375 h 0.05092 l 0.171863,-0.94207 h 0.935696 v 10.1208 h -1.158481 v -2.98532 q 0,-0.12094 0.01273,-0.30553 0.01273,-0.18459 0.02546,-0.35645 0.0191,-0.20369 0.03819,-0.42011 h -0.07638 q -0.140036,0.21642 -0.330995,0.41374 -0.184593,0.19096 -0.432839,0.33736 -0.241881,0.1464 -0.547414,0.22915 -0.305534,0.0828 -0.687451,0.0828 z"
         style="font-style:normal;font-variant:normal;font-weight:normal;font-stretch:normal;font-size:13.03609657px;line-height:1.25;font-family:'Droid Sans';-inkscape-font-specification:'Droid Sans';stroke-width:0.83690041;fill:#ffffff"
         id="path1792" />
      <path
         d="m 83.095518,121.47579 q 0.114575,0 0.254611,-0.0127 0.146401,-0.0127 0.280072,-0.0318 0.133671,-0.0191 0.241881,-0.0446 0.114575,-0.0255 0.171863,-0.0446 v 0.87841 q -0.08275,0.0382 -0.210055,0.0764 -0.127305,0.0382 -0.280072,0.0637 -0.152767,0.0318 -0.318264,0.0446 -0.165497,0.0191 -0.324629,0.0191 -0.394648,0 -0.732008,-0.10185 -0.33736,-0.10184 -0.585606,-0.35009 -0.24188,-0.24824 -0.381917,-0.66835 -0.140036,-0.42647 -0.140036,-1.06937 v -4.05468 H 80.08474 v -0.51559 l 0.986618,-0.49649 0.496492,-1.46402 h 0.668355 v 1.60405 h 1.756817 v 0.87205 h -1.756817 v 4.05468 q 0,0.61743 0.197323,0.92933 0.203689,0.3119 0.66199,0.3119 z"
         style="font-style:normal;font-variant:normal;font-weight:normal;font-stretch:normal;font-size:13.03609657px;line-height:1.25;font-family:'Droid Sans';-inkscape-font-specification:'Droid Sans';stroke-width:0.83690041;fill:#ffffff"
         id="path1794" />
      <path
         d="m 87.653059,121.47579 q 0.114575,0 0.254611,-0.0127 0.146401,-0.0127 0.280072,-0.0318 0.133671,-0.0191 0.241881,-0.0446 0.114575,-0.0255 0.171863,-0.0446 v 0.87841 q -0.08275,0.0382 -0.210055,0.0764 -0.127305,0.0382 -0.280072,0.0637 -0.152767,0.0318 -0.318264,0.0446 -0.165497,0.0191 -0.32463,0.0191 -0.394647,0 -0.732007,-0.10185 -0.33736,-0.10184 -0.585606,-0.35009 -0.241881,-0.24824 -0.381917,-0.66835 -0.140036,-0.42647 -0.140036,-1.06937 v -4.05468 H 84.64228 v -0.51559 l 0.986619,-0.49649 0.496492,-1.46402 h 0.668355 v 1.60405 h 1.756817 v 0.87205 h -1.756817 v 4.05468 q 0,0.61743 0.197323,0.92933 0.203689,0.3119 0.66199,0.3119 z"
         style="font-style:normal;font-variant:normal;font-weight:normal;font-stretch:normal;font-size:13.03609657px;line-height:1.25;font-family:'Droid Sans';-inkscape-font-specification:'Droid Sans';stroke-width:0.83690041;fill:#ffffff"
         id="path1796" />
      <path
         d="m 95.316857,122.29691 -0.547415,-2.48882 q -0.02546,-0.10821 -0.07002,-0.30554 -0.03819,-0.20368 -0.08911,-0.45193 -0.05092,-0.25461 -0.108209,-0.53468 -0.05092,-0.28644 -0.10821,-0.56651 -0.127306,-0.65563 -0.280073,-1.4131 h -0.03819 q -0.146402,0.75747 -0.267342,1.41946 -0.05092,0.28007 -0.10821,0.56651 -0.05092,0.28644 -0.101844,0.54105 -0.05092,0.24825 -0.09548,0.45194 -0.03819,0.20368 -0.06365,0.31826 l -0.572876,2.46336 h -2.087812 l -1.91595,-7.11638 h 1.92868 l 0.719277,3.15081 q 0.05729,0.24825 0.114575,0.59834 0.06365,0.34372 0.114575,0.70018 0.05729,0.35009 0.101845,0.66835 0.04456,0.3119 0.07002,0.4965 h 0.03819 q 0.0064,-0.12094 0.02546,-0.3119 0.02546,-0.19733 0.05729,-0.42011 0.03183,-0.22279 0.06365,-0.45194 0.03819,-0.23551 0.07002,-0.4392 0.03819,-0.20369 0.06365,-0.35646 0.03183,-0.15913 0.05092,-0.22278 l 0.776565,-3.41179 h 2.138734 l 0.744738,3.41179 q 0.03183,0.14004 0.08275,0.43284 0.05092,0.2928 0.101844,0.63016 0.05729,0.331 0.09548,0.64926 0.03819,0.3119 0.04456,0.49013 h 0.03819 q 0.0191,-0.15914 0.06365,-0.47103 0.05092,-0.3119 0.10821,-0.66836 0.05729,-0.36282 0.12094,-0.71928 0.07002,-0.35645 0.127306,-0.6047 l 0.744738,-3.15081 h 1.903219 l -1.941411,7.11638 z"
         style="font-weight:bold;-inkscape-font-specification:'Droid Sans Bold';stroke-width:0.83690041;fill:#ffffff"
         id="path1798" />
      <path
         d="m 104.52742,122.29691 -0.37555,-0.96752 h -0.0573 q -0.21005,0.28644 -0.42011,0.49649 -0.21005,0.20369 -0.4583,0.33736 -0.24824,0.13367 -0.56014,0.19733 -0.30554,0.0637 -0.71291,0.0637 -0.43284,0 -0.80203,-0.13367 -0.36919,-0.14004 -0.64289,-0.41375 -0.26735,-0.28007 -0.42011,-0.70018 -0.152769,-0.42647 -0.152769,-1.00571 0,-1.13302 0.725639,-1.6677 0.72565,-0.54105 2.17056,-0.59834 l 1.13302,-0.0382 v -0.53469 q 0,-0.4392 -0.25461,-0.64926 -0.25461,-0.21005 -0.71291,-0.21005 -0.4583,0 -0.8975,0.13367 -0.43284,0.13367 -0.87205,0.35646 l -0.63016,-1.28579 q 0.53468,-0.29917 1.18394,-0.47103 0.64926,-0.17186 1.36217,-0.17186 1.33035,0 2.03689,0.62379 0.71291,0.6238 0.71291,1.89686 v 4.74213 z m -0.57288,-3.29721 -0.64289,0.0255 q -0.38828,0.0127 -0.65562,0.10184 -0.26735,0.0891 -0.43284,0.24188 -0.15913,0.14641 -0.23552,0.35646 -0.07,0.20369 -0.07,0.4583 0,0.44557 0.21642,0.63653 0.21642,0.18459 0.56651,0.18459 0.26735,0 0.4965,-0.0891 0.22915,-0.0955 0.39464,-0.27371 0.17187,-0.18459 0.26734,-0.44557 0.0955,-0.26734 0.0955,-0.61107 z"
         style="font-weight:bold;-inkscape-font-specification:'Droid Sans Bold';stroke-width:0.83690041;fill:#ffffff"
         id="path1800" />
      <path
         d="m 111.59288,115.04686 q 0.0764,0 0.1655,0.006 0.0955,0 0.17823,0.0127 0.0891,0.006 0.15913,0.0191 0.0764,0.006 0.11458,0.0191 v 1.82047 q -0.0509,-0.0127 -0.14004,-0.0255 -0.0891,-0.0127 -0.19096,-0.0191 -0.0955,-0.0127 -0.19096,-0.0127 -0.0955,-0.006 -0.15913,-0.006 -0.37555,0 -0.69381,0.0955 -0.3119,0.0955 -0.54105,0.3119 -0.22279,0.21006 -0.35009,0.56015 -0.12094,0.34372 -0.12094,0.84658 v 3.62184 h -1.94142 v -7.11638 h 1.47038 l 0.28644,1.06937 h 0.0955 q 0.15277,-0.27371 0.331,-0.4965 0.17822,-0.22278 0.39464,-0.37555 0.22279,-0.15913 0.4965,-0.24188 0.28007,-0.0891 0.63652,-0.0891 z"
         style="font-weight:bold;-inkscape-font-specification:'Droid Sans Bold';stroke-width:0.83690041;fill:#ffffff"
         id="path1802" />
      <path
         d="m 119.70861,122.29691 h -1.94141 v -4.15653 q 0,-0.77019 -0.23551,-1.15211 -0.22915,-0.38828 -0.73837,-0.38828 -0.38192,0 -0.63653,0.15276 -0.25461,0.15277 -0.40738,0.45194 -0.1464,0.29917 -0.21006,0.73837 -0.0636,0.43921 -0.0636,1.00572 v 3.34813 h -1.94141 v -7.11638 h 1.48311 l 0.26098,0.91023 h 0.10821 q 0.15276,-0.2737 0.36918,-0.47103 0.22279,-0.19732 0.48377,-0.32463 0.26097,-0.1273 0.55378,-0.18459 0.2928,-0.0637 0.59833,-0.0637 0.52195,0 0.94843,0.15276 0.42647,0.14641 0.73201,0.46467 0.30553,0.31826 0.47103,0.81476 0.16549,0.49012 0.16549,1.17757 z"
         style="font-weight:bold;-inkscape-font-specification:'Droid Sans Bold';stroke-width:0.83690041;fill:#ffffff"
         id="path1804" />
    </g>
  </g>
</svg>
